<svg width="23" height="23" viewBox="0 0 23 23" fill="none" xmlns="http://www.w3.org/2000/svg">
<g clip-path="url(#clip0_80_1889)">
<path d="M13.4222 14.0917C12.8499 14.4732 12.1853 14.6748 11.5 14.6748C10.8148 14.6748 10.1501 14.4732 9.57788 14.0917L0.153139 7.80832C0.10085 7.77346 0.0499082 7.73712 0 7.69974V17.9957C0 19.1762 0.957959 20.113 2.1173 20.113H20.8827C22.0631 20.113 23 19.155 23 17.9957V7.6997C22.95 7.73716 22.8989 7.7736 22.8465 7.8085L13.4222 14.0917Z" fill="#F39719"/>
<path d="M0.900684 6.68698L10.3254 12.9704C10.6822 13.2082 11.0911 13.3272 11.5 13.3272C11.9089 13.3272 12.3178 13.2082 12.6746 12.9704L22.0993 6.68698C22.6633 6.31121 23 5.6823 23 5.00353C23 3.83642 22.0505 2.88695 20.8834 2.88695H2.11658C0.949514 2.88699 0 3.83646 0 5.00465C0 5.6823 0.336734 6.31121 0.900684 6.68698Z" fill="#F39719"/>
</g>
<defs>
<clipPath id="clip0_80_1889">
<rect width="23" height="23" fill="white"/>
</clipPath>
</defs>
</svg>
