<svg width="48" height="48" viewBox="0 0 48 48" fill="none" xmlns="http://www.w3.org/2000/svg">
<path d="M24 0C28.7468 0 33.3869 1.40758 37.3337 4.04473C41.2805 6.68188 44.3566 10.4302 46.1731 14.8156C47.9896 19.201 48.4649 24.0266 47.5388 28.6822C46.6128 33.3377 44.327 37.6141 40.9706 40.9706C37.6141 44.327 33.3377 46.6128 28.6822 47.5388C24.0266 48.4649 19.201 47.9896 14.8156 46.1731C10.4302 44.3566 6.68188 41.2805 4.04473 37.3337C1.40758 33.3869 0 28.7468 0 24C0 17.6348 2.52856 11.5303 7.02944 7.02944C11.5303 2.52856 17.6348 0 24 0Z" fill="#F2994A"/>
<path d="M34.664 19.682C34.6458 18.7397 34.4673 17.8074 34.136 16.925C33.8433 16.1699 33.3964 15.4842 32.8237 14.9117C32.251 14.3392 31.5651 13.8924 30.81 13.6C29.9269 13.2687 28.994 13.0898 28.051 13.071C26.837 13.013 26.451 13 23.365 13C20.279 13 19.893 13.013 18.681 13.067C17.7387 13.0853 16.8064 13.2639 15.924 13.595C15.1643 13.8803 14.4764 14.3288 13.909 14.909C13.3321 15.4768 12.8852 16.1629 12.599 16.92C12.2682 17.8025 12.0897 18.7347 12.071 19.677C12.013 20.894 12 21.28 12 24.365C12 27.45 12.013 27.837 12.067 29.049C12.0852 29.9913 12.2637 30.9236 12.595 31.806C12.8875 32.561 13.3343 33.2467 13.9068 33.8192C14.4793 34.3917 15.165 34.8385 15.92 35.131C16.8025 35.4618 17.7347 35.6403 18.677 35.659C19.889 35.712 20.277 35.726 23.361 35.726C26.445 35.726 26.833 35.713 28.045 35.659C28.9873 35.6408 29.9196 35.4623 30.802 35.131C31.5572 34.8389 32.2431 34.3923 32.8157 33.8197C33.3883 33.2471 33.8349 32.5612 34.127 31.806C34.4577 30.9235 34.6362 29.9912 34.655 29.049C34.708 27.837 34.722 27.449 34.722 24.365C34.722 21.281 34.722 20.894 34.664 19.682ZM32.617 28.96C32.6096 29.6803 32.4773 30.3939 32.226 31.069C32.0366 31.5593 31.7468 32.0045 31.3751 32.3761C31.0035 32.7478 30.5583 33.0376 30.068 33.227C29.3928 33.4779 28.6793 33.6102 27.959 33.618C26.759 33.671 26.401 33.685 23.369 33.685C20.337 33.685 19.969 33.672 18.778 33.618C18.0577 33.6107 17.3441 33.4784 16.669 33.227C16.1759 33.0459 15.7298 32.756 15.364 32.379C14.9878 32.0124 14.6982 31.5666 14.516 31.074C14.2651 30.3988 14.1329 29.6853 14.125 28.965C14.072 27.765 14.058 27.407 14.058 24.374C14.058 21.341 14.071 20.974 14.125 19.784C14.1323 19.0637 14.2646 18.3501 14.516 17.675C14.6972 17.1807 14.9889 16.7343 15.369 16.37C15.7355 15.9937 16.1813 15.704 16.674 15.522C17.3492 15.2712 18.0627 15.1389 18.783 15.131C19.983 15.078 20.341 15.064 23.373 15.064C26.405 15.064 26.773 15.077 27.964 15.131C28.6843 15.1384 29.3979 15.2707 30.073 15.522C30.5662 15.703 31.0123 15.9928 31.378 16.37C31.7542 16.7366 32.0438 17.1824 32.226 17.675C32.4768 18.3502 32.6091 19.0637 32.617 19.784C32.67 20.984 32.684 21.342 32.684 24.374C32.684 27.406 32.671 27.761 32.617 28.96Z" fill="white"/>
<path d="M23.3654 18.5264C22.2107 18.5264 21.082 18.8688 20.1219 19.5102C19.1619 20.1517 18.4136 21.0635 17.9717 22.1303C17.5299 23.197 17.4143 24.3709 17.6395 25.5033C17.8648 26.6358 18.4208 27.676 19.2373 28.4925C20.0537 29.3089 21.0939 29.8649 22.2264 30.0902C23.3589 30.3155 24.5327 30.1998 25.5995 29.758C26.6662 29.3161 27.578 28.5678 28.2195 27.6078C28.8609 26.6477 29.2033 25.519 29.2033 24.3644C29.2028 22.8162 28.5876 21.3316 27.4929 20.2369C26.3981 19.1421 24.9135 18.5269 23.3654 18.5264ZM23.3654 28.1514C22.6164 28.1514 21.8842 27.9293 21.2614 27.5131C20.6386 27.097 20.1532 26.5056 19.8666 25.8136C19.58 25.1216 19.505 24.3602 19.6511 23.6256C19.7972 22.891 20.1579 22.2162 20.6875 21.6866C21.2172 21.1569 21.8919 20.7963 22.6265 20.6501C23.3611 20.504 24.1226 20.579 24.8146 20.8656C25.5066 21.1523 26.098 21.6377 26.5141 22.2604C26.9302 22.8832 27.1524 23.6154 27.1524 24.3644C27.1521 25.3687 26.753 26.3317 26.0429 27.0419C25.3327 27.752 24.3696 28.1511 23.3654 28.1514Z" fill="white"/>
<path d="M30.7963 18.2976C30.7963 18.5671 30.7164 18.8307 30.5666 19.0548C30.4168 19.279 30.204 19.4537 29.9549 19.5568C29.7059 19.66 29.4318 19.687 29.1674 19.6344C28.903 19.5818 28.6601 19.452 28.4695 19.2614C28.2789 19.0707 28.1491 18.8279 28.0965 18.5635C28.0439 18.2991 28.0709 18.025 28.1741 17.776C28.2772 17.5269 28.4519 17.314 28.6761 17.1643C28.9002 17.0145 29.1637 16.9346 29.4333 16.9346C29.7948 16.9346 30.1415 17.0782 30.3971 17.3338C30.6527 17.5894 30.7963 17.9361 30.7963 18.2976Z" fill="white"/>
</svg>
