<svg width="48" height="49" viewBox="0 0 48 49" fill="none" xmlns="http://www.w3.org/2000/svg">
<path d="M24 0.519531C28.7468 0.519531 33.3869 1.92711 37.3337 4.56426C41.2805 7.20141 44.3566 10.9497 46.1731 15.3351C47.9896 19.7206 48.4649 24.5462 47.5388 29.2017C46.6128 33.8572 44.327 38.1336 40.9706 41.4901C37.6141 44.8466 33.3377 47.1323 28.6822 48.0584C24.0266 48.9844 19.201 48.5091 14.8156 46.6926C10.4302 44.8761 6.68188 41.8 4.04473 37.8532C1.40758 33.9064 0 29.2663 0 24.5195C0 18.1543 2.52856 12.0498 7.02944 7.54897C11.5303 3.0481 17.6348 0.519531 24 0.519531Z" fill="white"/>
<path d="M15.5457 14.0081C15.2242 13.9814 14.9006 14.0211 14.595 14.1249C14.2895 14.2286 14.0086 14.3941 13.7698 14.6111C13.5311 14.8281 13.3395 15.092 13.2071 15.3862C13.0747 15.6804 13.0042 15.9988 13.0002 16.3214C12.9961 16.6441 13.0585 16.9641 13.1835 17.2616C13.3085 17.559 13.4933 17.8276 13.7266 18.0505C13.9598 18.2735 14.2365 18.446 14.5393 18.5574C14.8421 18.6688 15.1646 18.7167 15.4867 18.6981H15.5157C15.8387 18.725 16.1638 18.685 16.4705 18.5804C16.7773 18.4758 17.0591 18.3089 17.2983 18.0902C17.5375 17.8716 17.729 17.6058 17.8606 17.3097C17.9923 17.0135 18.0613 16.6934 18.0634 16.3693C18.0655 16.0452 18.0005 15.7242 17.8727 15.4264C17.7448 15.1285 17.5568 14.8604 17.3204 14.6387C17.084 14.417 16.8043 14.2465 16.4989 14.138C16.1935 14.0295 15.869 13.9852 15.5457 14.0081Z" fill="#203476"/>
<path d="M13.2598 20.5508H17.7708V34.1238H13.2598V20.5508Z" fill="#203476"/>
<path d="M28.8446 20.2314C28.0431 20.3013 27.2658 20.5415 26.5646 20.9359C25.8634 21.3303 25.2545 21.8698 24.7786 22.5184V20.5504H20.2676V34.1234H24.7786V26.5444C24.7615 26.1718 24.812 25.7991 24.9276 25.4444C25.0964 24.9644 25.4094 24.5482 25.8238 24.2528C26.2382 23.9575 26.7337 23.7974 27.2426 23.7944C28.8746 23.7944 29.5276 25.0394 29.5276 26.8634V34.1245H34.0386V26.3424C34.0386 22.1734 31.8126 20.2334 28.8446 20.2334V20.2314Z" fill="#203476"/>
</svg>
