<svg width="48" height="48" viewBox="0 0 48 48" fill="none" xmlns="http://www.w3.org/2000/svg">
<path d="M24 0C28.7468 0 33.3869 1.40758 37.3337 4.04473C41.2805 6.68188 44.3566 10.4302 46.1731 14.8156C47.9896 19.201 48.4649 24.0266 47.5388 28.6822C46.6128 33.3377 44.327 37.6141 40.9706 40.9706C37.6141 44.327 33.3377 46.6128 28.6822 47.5388C24.0266 48.4649 19.201 47.9896 14.8156 46.1731C10.4302 44.3566 6.68188 41.2805 4.04473 37.3337C1.40758 33.3869 0 28.7468 0 24C0 17.6348 2.52856 11.5303 7.02944 7.02944C11.5303 2.52856 17.6348 0 24 0Z" fill="white"/>
<path d="M21.0896 25.5685H18.0716C17.5836 25.5685 17.4316 25.3855 17.4316 24.9285V21.2395C17.4316 20.7515 17.6146 20.5995 18.0716 20.5995H21.0896V17.9205C21.0534 16.7195 21.3375 15.5305 21.9126 14.4755C22.517 13.4226 23.48 12.6222 24.6256 12.2205C25.3783 11.9498 26.1728 11.8144 26.9726 11.8205H29.9596C30.3866 11.8205 30.5696 12.0035 30.5696 12.4305V15.9055C30.5696 16.3325 30.3866 16.5155 29.9596 16.5155C29.1366 16.5155 28.3136 16.5155 27.4906 16.5455C27.3206 16.5202 27.1471 16.5351 26.9839 16.5889C26.8207 16.6428 26.6724 16.7342 26.5508 16.8557C26.4293 16.9772 26.3379 17.1255 26.2841 17.2887C26.2302 17.452 26.2153 17.6255 26.2406 17.7955C26.2106 18.7095 26.2406 19.5955 26.2406 20.5385H29.7766C30.2646 20.5385 30.4476 20.7215 30.4476 21.2095V24.8975C30.4476 25.3855 30.2956 25.5375 29.7766 25.5375H26.2416V35.4755C26.2416 35.9935 26.0896 36.1755 25.5416 36.1755H21.7316C21.2746 36.1755 21.0916 35.9925 21.0916 35.5355V25.5685H21.0896Z" fill="#203476"/>
</svg>
