<svg width="26" height="26" viewBox="0 0 26 26" fill="none" xmlns="http://www.w3.org/2000/svg">
<path d="M23.4 23.4V15.782C23.4 12.038 22.594 9.17799 18.226 9.17799C16.12 9.17799 14.716 10.322 14.144 11.414H14.092V9.51599H9.95801V23.4H14.274V16.51C14.274 14.69 14.612 12.948 16.848 12.948C19.058 12.948 19.084 15.002 19.084 16.614V23.374H23.4V23.4Z" fill="#080B45"/>
<path d="M2.93799 9.516H7.25399V23.4H2.93799V9.516Z" fill="#080B45"/>
<path d="M5.0961 2.6C3.7181 2.6 2.6001 3.718 2.6001 5.096C2.6001 6.474 3.7181 7.618 5.0961 7.618C6.4741 7.618 7.5921 6.474 7.5921 5.096C7.5921 3.718 6.4741 2.6 5.0961 2.6Z" fill="#080B45"/>
</svg>
