<svg width="19" height="19" viewBox="0 0 19 19" fill="none" xmlns="http://www.w3.org/2000/svg">
<path d="M18.1469 13.5C18.0956 13.4594 14.375 10.7775 13.3537 10.97C12.8662 11.0562 12.5875 11.3888 12.0281 12.0544C11.9381 12.1619 11.7219 12.4194 11.5538 12.6025C11.2002 12.4872 10.8554 12.3468 10.5219 12.1825C8.80033 11.3444 7.40937 9.95342 6.57125 8.23187C6.40679 7.89839 6.26643 7.55355 6.15125 7.2C6.335 7.03125 6.5925 6.815 6.7025 6.7225C7.365 6.16625 7.69812 5.8875 7.78438 5.39875C7.96125 4.38625 5.28125 0.64 5.25312 0.60625C5.13153 0.432544 4.97284 0.288039 4.78855 0.183189C4.60425 0.0783398 4.39895 0.0157676 4.1875 0C3.10125 0 0 4.02313 0 4.70062C0 4.74 0.0568751 8.7425 4.9925 13.7631C10.0081 18.6931 14.01 18.75 14.0494 18.75C14.7275 18.75 18.75 15.6487 18.75 14.5625C18.7344 14.3518 18.6722 14.1472 18.5679 13.9634C18.4636 13.7797 18.3198 13.6214 18.1469 13.5Z" fill="#F39719"/>
</svg>
