<svg width="27" height="26" viewBox="0 0 27 26" fill="none" xmlns="http://www.w3.org/2000/svg">
<g clip-path="url(#clip0_80_1894)">
<path fill-rule="evenodd" clip-rule="evenodd" d="M22.4536 4.34209C20.0855 2.05902 16.9362 0.801144 13.581 0.799805C6.66733 0.799805 1.04061 6.21798 1.03783 12.8774C1.0369 15.0062 1.6144 17.0842 2.71209 18.9159L0.932617 25.1748L7.58194 23.4952C9.4141 24.4576 11.4768 24.9647 13.5759 24.9653H13.5811C20.494 24.9653 26.1214 19.5467 26.124 12.887C26.1254 9.65955 24.8219 6.62502 22.4536 4.34209ZM13.581 22.9255H13.5767C11.706 22.9248 9.8714 22.4407 8.27052 21.5261L7.89 21.3085L3.94419 22.3053L4.99739 18.6007L4.74942 18.2208C3.70581 16.6224 3.15472 14.775 3.15565 12.8781C3.15781 7.343 7.83469 2.83978 13.5852 2.83978C16.3698 2.84068 18.9874 3.88625 20.9557 5.78386C22.9239 7.68146 24.0073 10.2038 24.0063 12.8863C24.0039 18.4218 19.3273 22.9255 13.581 22.9255ZM19.2995 15.4067C18.9862 15.2555 17.4452 14.5256 17.1579 14.4248C16.8708 14.324 16.6616 14.2739 16.4529 14.5759C16.2439 14.8779 15.6433 15.5578 15.4604 15.7591C15.2775 15.9605 15.0949 15.9858 14.7814 15.8347C14.4679 15.6837 13.4582 15.3648 12.261 14.3367C11.3294 13.5364 10.7004 12.5481 10.5175 12.2461C10.3349 11.9438 10.516 11.7962 10.655 11.6302C10.9943 11.2245 11.334 10.7991 11.4384 10.5979C11.543 10.3964 11.4907 10.2201 11.4122 10.0691C11.334 9.91811 10.7072 8.43261 10.4461 7.82815C10.1915 7.2399 9.93336 7.31934 9.74085 7.31012C9.55824 7.30134 9.34921 7.29956 9.14018 7.29956C8.9313 7.29956 8.59172 7.37498 8.30436 7.67729C8.01715 7.97945 7.2076 8.70948 7.2076 10.195C7.2076 11.6805 8.33062 13.1155 8.48728 13.317C8.64394 13.5184 10.6973 16.5668 13.8412 17.8739C14.5889 18.1851 15.1726 18.3707 15.6279 18.5098C16.3787 18.7395 17.0618 18.707 17.6019 18.6294C18.2041 18.5426 19.456 17.8992 19.7174 17.1943C19.9785 16.4893 19.9785 15.8851 19.9 15.7591C19.8218 15.6332 19.6128 15.5578 19.2995 15.4067Z" fill="#080B45"/>
</g>
<defs>
<clipPath id="clip0_80_1894">
<rect width="27" height="26" fill="white"/>
</clipPath>
</defs>
</svg>
